<svg width="166" height="48" viewBox="0 0 166 48" fill="none" xmlns="http://www.w3.org/2000/svg">
<path d="M31 4H155L166 24.5L155 44H31V4Z" fill="#D6001C"/>
<path d="M35.7113 3.71539L47.4226 24L35.7113 44.2846L12.2887 44.2846L0.57735 24L12.2887 3.71539L35.7113 3.71539Z" fill="white" stroke="#4434C9"/>
<path d="M18 24L15 19L18 14L30 14L33 19L27 29L21 29L27 19L21 19L18 24Z" fill="#D6001C"/>
<path opacity="0.4" d="M30 24L33 29L30 34L18 34L15 29L21 19L27 19L21 29L27 29L30 24Z" fill="#D6001C"/>
<path d="M72.3111 22.1662H70.3168C70.2401 21.7401 70.0973 21.3651 69.8885 21.0412C69.6797 20.7173 69.424 20.4425 69.1214 20.2166C68.8189 19.9908 68.4801 19.8203 68.1051 19.7053C67.7344 19.5902 67.3402 19.5327 66.9226 19.5327C66.1683 19.5327 65.4929 19.7223 64.8963 20.1016C64.304 20.4808 63.8352 21.0369 63.4901 21.7699C63.1491 22.5028 62.9787 23.3977 62.9787 24.4545C62.9787 25.5199 63.1491 26.419 63.4901 27.152C63.8352 27.8849 64.3061 28.4389 64.9027 28.8139C65.4993 29.1889 66.1705 29.3764 66.9162 29.3764C67.3295 29.3764 67.7216 29.321 68.0923 29.2102C68.4673 29.0952 68.8061 28.9268 69.1087 28.7053C69.4112 28.4837 69.6669 28.2131 69.8757 27.8935C70.0888 27.5696 70.2358 27.1989 70.3168 26.7812L72.3111 26.7876C72.2045 27.4311 71.9979 28.0234 71.6911 28.5646C71.3885 29.1016 70.9986 29.5661 70.5213 29.9581C70.0483 30.3459 69.5071 30.6463 68.8977 30.8594C68.2884 31.0724 67.6236 31.179 66.9034 31.179C65.7699 31.179 64.7599 30.9105 63.8736 30.3736C62.9872 29.8324 62.2884 29.0589 61.777 28.0533C61.2699 27.0476 61.0163 25.848 61.0163 24.4545C61.0163 23.0568 61.272 21.8572 61.7834 20.8558C62.2947 19.8501 62.9936 19.0788 63.88 18.5419C64.7663 18.0007 65.7741 17.7301 66.9034 17.7301C67.598 17.7301 68.2457 17.8303 68.8466 18.0305C69.4517 18.2266 69.995 18.5163 70.4766 18.8999C70.9581 19.2791 71.3565 19.7436 71.6719 20.2933C71.9872 20.8388 72.2003 21.4631 72.3111 22.1662ZM75.0444 34.6818C74.7589 34.6818 74.4989 34.6584 74.2646 34.6115C74.0302 34.5689 73.8555 34.522 73.7404 34.4709L74.2006 32.9048C74.5501 32.9986 74.8611 33.0391 75.1339 33.0263C75.4066 33.0135 75.6474 32.9112 75.8562 32.7195C76.0692 32.5277 76.2567 32.2145 76.4187 31.7798L76.6552 31.1278L73.0628 21.1818H75.1083L77.5948 28.8011H77.6971L80.1836 21.1818H82.2354L78.1893 32.3104C78.0018 32.8217 77.7631 33.2543 77.4734 33.608C77.1836 33.9659 76.8384 34.2344 76.4378 34.4134C76.0373 34.5923 75.5728 34.6818 75.0444 34.6818ZM83.465 31V17.9091H85.3762V22.7734H85.4913C85.6021 22.5689 85.7619 22.3324 85.9707 22.0639C86.1795 21.7955 86.4693 21.5611 86.84 21.3608C87.2107 21.1562 87.7008 21.054 88.3102 21.054C89.1028 21.054 89.8102 21.2543 90.4323 21.6548C91.0545 22.0554 91.5424 22.6328 91.8961 23.3871C92.2541 24.1413 92.433 25.049 92.433 26.1101C92.433 27.1712 92.2562 28.081 91.9025 28.8395C91.5488 29.5937 91.063 30.1754 90.4451 30.5845C89.8272 30.9893 89.122 31.1918 88.3294 31.1918C87.7328 31.1918 87.2448 31.0916 86.8656 30.8913C86.4906 30.6911 86.1965 30.4567 85.9835 30.1882C85.7704 29.9197 85.6063 29.6811 85.4913 29.4723H85.3315V31H83.465ZM85.3379 26.0909C85.3379 26.7812 85.438 27.3864 85.6383 27.9062C85.8386 28.4261 86.1284 28.8331 86.5076 29.1271C86.8869 29.4169 87.3514 29.5618 87.9011 29.5618C88.4721 29.5618 88.9494 29.4105 89.3329 29.108C89.7164 28.8011 90.0062 28.3857 90.2022 27.8615C90.4025 27.3374 90.5026 26.7472 90.5026 26.0909C90.5026 25.4432 90.4046 24.8615 90.2086 24.3459C90.0169 23.8303 89.7271 23.4233 89.3393 23.125C88.9558 22.8267 88.4764 22.6776 87.9011 22.6776C87.3471 22.6776 86.8784 22.8203 86.4948 23.1058C86.1156 23.3913 85.8279 23.7898 85.6319 24.3011C85.4359 24.8125 85.3379 25.4091 85.3379 26.0909ZM98.0907 31.1982C97.1234 31.1982 96.2903 30.9915 95.5914 30.5781C94.8968 30.1605 94.3599 29.5746 93.9806 28.8203C93.6056 28.0618 93.4181 27.1733 93.4181 26.1548C93.4181 25.1491 93.6056 24.2628 93.9806 23.4957C94.3599 22.7287 94.8883 22.13 95.5659 21.6996C96.2477 21.2692 97.0445 21.054 97.9565 21.054C98.5105 21.054 99.0474 21.1456 99.5673 21.3288C100.087 21.5121 100.554 21.7997 100.967 22.1918C101.38 22.5838 101.706 23.093 101.945 23.7195C102.184 24.3416 102.303 25.098 102.303 25.9886V26.6662H94.4984V25.2344H100.43C100.43 24.7315 100.328 24.2862 100.123 23.8984C99.9188 23.5064 99.6312 23.1974 99.2605 22.9716C98.894 22.7457 98.4636 22.6328 97.9693 22.6328C97.4323 22.6328 96.9636 22.7649 96.563 23.0291C96.1667 23.2891 95.8599 23.63 95.6426 24.0518C95.4295 24.4695 95.323 24.9233 95.323 25.4134V26.532C95.323 27.1882 95.438 27.7464 95.6681 28.2067C95.9025 28.6669 96.2285 29.0185 96.6461 29.2614C97.0637 29.5 97.5516 29.6193 98.1099 29.6193C98.4721 29.6193 98.8024 29.5682 99.1007 29.4659C99.3989 29.3594 99.6568 29.2017 99.8741 28.9929C100.091 28.7841 100.258 28.5263 100.373 28.2195L102.182 28.5455C102.037 29.0781 101.777 29.5447 101.402 29.9453C101.031 30.3416 100.564 30.6506 100.002 30.8722C99.4437 31.0895 98.8066 31.1982 98.0907 31.1982ZM103.704 31V21.1818H105.551V22.7415H105.653C105.832 22.2131 106.148 21.7976 106.599 21.495C107.055 21.1882 107.571 21.0348 108.146 21.0348C108.265 21.0348 108.406 21.0391 108.568 21.0476C108.734 21.0561 108.864 21.0668 108.958 21.0795V22.9077C108.881 22.8864 108.745 22.8629 108.549 22.8374C108.353 22.8075 108.157 22.7926 107.961 22.7926C107.509 22.7926 107.106 22.8885 106.753 23.0803C106.403 23.2678 106.126 23.5298 105.922 23.8665C105.717 24.1989 105.615 24.5781 105.615 25.0043V31H103.704ZM120.918 22.1662H118.924C118.847 21.7401 118.704 21.3651 118.496 21.0412C118.287 20.7173 118.031 20.4425 117.728 20.2166C117.426 19.9908 117.087 19.8203 116.712 19.7053C116.341 19.5902 115.947 19.5327 115.53 19.5327C114.775 19.5327 114.1 19.7223 113.503 20.1016C112.911 20.4808 112.442 21.0369 112.097 21.7699C111.756 22.5028 111.586 23.3977 111.586 24.4545C111.586 25.5199 111.756 26.419 112.097 27.152C112.442 27.8849 112.913 28.4389 113.51 28.8139C114.106 29.1889 114.777 29.3764 115.523 29.3764C115.937 29.3764 116.329 29.321 116.699 29.2102C117.074 29.0952 117.413 28.9268 117.716 28.7053C118.018 28.4837 118.274 28.2131 118.483 27.8935C118.696 27.5696 118.843 27.1989 118.924 26.7812L120.918 26.7876C120.812 27.4311 120.605 28.0234 120.298 28.5646C119.996 29.1016 119.606 29.5661 119.128 29.9581C118.655 30.3459 118.114 30.6463 117.505 30.8594C116.895 31.0724 116.231 31.179 115.51 31.179C114.377 31.179 113.367 30.9105 112.481 30.3736C111.594 29.8324 110.895 29.0589 110.384 28.0533C109.877 27.0476 109.623 25.848 109.623 24.4545C109.623 23.0568 109.879 21.8572 110.39 20.8558C110.902 19.8501 111.601 19.0788 112.487 18.5419C113.373 18.0007 114.381 17.7301 115.51 17.7301C116.205 17.7301 116.853 17.8303 117.454 18.0305C118.059 18.2266 118.602 18.5163 119.084 18.8999C119.565 19.2791 119.964 19.7436 120.279 20.2933C120.594 20.8388 120.807 21.4631 120.918 22.1662ZM124.319 17.9091V31H122.408V17.9091H124.319ZM132.39 26.9283V21.1818H134.308V31H132.428V29.2997H132.326C132.1 29.8239 131.738 30.2607 131.239 30.6101C130.745 30.9553 130.129 31.1278 129.392 31.1278C128.761 31.1278 128.203 30.9893 127.717 30.7124C127.236 30.4311 126.857 30.0156 126.58 29.4659C126.307 28.9162 126.171 28.2365 126.171 27.4268V21.1818H128.082V27.1967C128.082 27.8658 128.267 28.3984 128.638 28.7947C129.009 29.1911 129.49 29.3892 130.083 29.3892C130.44 29.3892 130.796 29.2997 131.15 29.1207C131.508 28.9418 131.804 28.6712 132.038 28.3089C132.277 27.9467 132.394 27.4865 132.39 26.9283ZM136.309 31V17.9091H138.22V22.7734H138.335C138.446 22.5689 138.606 22.3324 138.815 22.0639C139.024 21.7955 139.313 21.5611 139.684 21.3608C140.055 21.1562 140.545 21.054 141.154 21.054C141.947 21.054 142.654 21.2543 143.276 21.6548C143.899 22.0554 144.386 22.6328 144.74 23.3871C145.098 24.1413 145.277 25.049 145.277 26.1101C145.277 27.1712 145.1 28.081 144.747 28.8395C144.393 29.5937 143.907 30.1754 143.289 30.5845C142.671 30.9893 141.966 31.1918 141.173 31.1918C140.577 31.1918 140.089 31.0916 139.71 30.8913C139.335 30.6911 139.041 30.4567 138.828 30.1882C138.614 29.9197 138.45 29.6811 138.335 29.4723H138.176V31H136.309ZM138.182 26.0909C138.182 26.7812 138.282 27.3864 138.482 27.9062C138.683 28.4261 138.972 28.8331 139.352 29.1271C139.731 29.4169 140.195 29.5618 140.745 29.5618C141.316 29.5618 141.793 29.4105 142.177 29.108C142.56 28.8011 142.85 28.3857 143.046 27.8615C143.247 27.3374 143.347 26.7472 143.347 26.0909C143.347 25.4432 143.249 24.8615 143.053 24.3459C142.861 23.8303 142.571 23.4233 142.183 23.125C141.8 22.8267 141.32 22.6776 140.745 22.6776C140.191 22.6776 139.722 22.8203 139.339 23.1058C138.96 23.3913 138.672 23.7898 138.476 24.3011C138.28 24.8125 138.182 25.4091 138.182 26.0909Z" fill="white"/>
</svg>
